<?xml version="1.0" encoding="UTF-8" standalone="no"?>
<!-- Created with Inkscape (http://www.inkscape.org/) -->

<svg
   xmlns:dc="http://purl.org/dc/elements/1.1/"
   xmlns:cc="http://creativecommons.org/ns#"
   xmlns:rdf="http://www.w3.org/1999/02/22-rdf-syntax-ns#"
   xmlns:svg="http://www.w3.org/2000/svg"
   xmlns="http://www.w3.org/2000/svg"
   xmlns:sodipodi="http://sodipodi.sourceforge.net/DTD/sodipodi-0.dtd"
   xmlns:inkscape="http://www.inkscape.org/namespaces/inkscape"
   width="300"
   height="250"
   id="svg3820"
   version="1.1"
   inkscape:version="0.48.3.1 r9886"
   sodipodi:docname="display.svg">
  <defs
     id="defs3822" />
  <sodipodi:namedview
     id="base"
     pagecolor="#ffffff"
     bordercolor="#666666"
     borderopacity="1.0"
     inkscape:pageopacity="0.0"
     inkscape:pageshadow="2"
     inkscape:zoom="1.979899"
     inkscape:cx="195.48812"
     inkscape:cy="133.70223"
     inkscape:document-units="px"
     inkscape:current-layer="layer1"
     showgrid="false"
     fit-margin-top="0"
     fit-margin-left="0"
     fit-margin-right="0"
     fit-margin-bottom="0"
     inkscape:window-width="1680"
     inkscape:window-height="979"
     inkscape:window-x="0"
     inkscape:window-y="24"
     inkscape:window-maximized="1" />
  <metadata
     id="metadata3825">
    <rdf:RDF>
      <cc:Work
         rdf:about="">
        <dc:format>image/svg+xml</dc:format>
        <dc:type
           rdf:resource="http://purl.org/dc/dcmitype/StillImage" />
        <dc:title></dc:title>
      </cc:Work>
    </rdf:RDF>
  </metadata>
  <g
     inkscape:label="Layer 1"
     inkscape:groupmode="layer"
     id="layer1"
     transform="translate(-240.37237,76.923601)">
    <rect
       style="fill:#000000;fill-opacity:1;fill-rule:nonzero;stroke:none"
       id="rect3847"
       width="50"
       height="60"
       x="366.37238"
       y="95.076401"
       ry="0" />
    <rect
       style="fill:#000000;fill-opacity:1;fill-rule:nonzero;stroke:none"
       id="rect3847-5"
       width="15"
       height="150"
       x="146.0764"
       y="-465.37238"
       ry="0"
       transform="matrix(0,1,-1,0,0,0)" />
    <g
       id="g3933"
       transform="translate(0.07818055,0.21937004)">
      <rect
         y="-63.142971"
         x="261.29419"
         height="170"
         width="260"
         id="rect3875"
         style="fill:#000000;fill-opacity:1;fill-rule:nonzero;stroke:none" />
      <rect
         y="-58.174145"
         x="266.29419"
         height="160"
         width="250"
         id="rect3875-4"
         style="fill:#ffffff;fill-opacity:1;fill-rule:nonzero;stroke:none" />
    </g>
    <path
       sodipodi:type="star"
       style="fill:#000000;fill-opacity:1;fill-rule:nonzero;stroke:none"
       id="path2989"
       sodipodi:sides="10"
       sodipodi:cx="147.48227"
       sodipodi:cy="92.416206"
       sodipodi:r1="75.663727"
       sodipodi:r2="55.613735"
       sodipodi:arg1="0.52359878"
       sodipodi:arg2="1.2269409"
       inkscape:flatsided="false"
       inkscape:rounded="0"
       inkscape:randomized="0"
       d="m 213.00898,130.24807 -46.77825,14.52635 12.02675,16.76404 -46.38277,-15.7435 -0.12381,20.63154 -28.27066,-39.99987 -12.227078,16.61849 0.639892,-48.977642 -19.660018,6.257742 29.306024,-39.247628 -19.5835,-6.493249 46.77824,-14.526351 -12.02674,-16.76404 46.38277,15.743498 0.12381,-20.631536 28.27066,39.999865 12.22708,-16.618488 -0.6399,48.977644 19.66002,-6.257741 -29.30602,39.247626 z"
       transform="translate(244.41298,-72.882991)" />
    <path
       sodipodi:type="star"
       style="fill:#ffffff;fill-opacity:1;fill-rule:nonzero;stroke:none"
       id="path2989-0"
       sodipodi:sides="10"
       sodipodi:cx="147.48227"
       sodipodi:cy="92.416206"
       sodipodi:r1="75.663727"
       sodipodi:r2="55.613735"
       sodipodi:arg1="0.52359878"
       sodipodi:arg2="1.2269409"
       inkscape:flatsided="false"
       inkscape:rounded="0"
       inkscape:randomized="0"
       d="m 213.00898,130.24807 -46.77825,14.52635 12.02675,16.76404 -46.38277,-15.7435 -0.12381,20.63154 -28.27066,-39.99987 -12.227078,16.61849 0.639892,-48.977642 -19.660018,6.257742 29.306024,-39.247628 -19.5835,-6.493249 46.77824,-14.526351 -12.02674,-16.76404 46.38277,15.743498 0.12381,-20.631536 28.27066,39.999865 12.22708,-16.618488 -0.6399,48.977644 19.66002,-6.257741 -29.30602,39.247626 z"
       transform="matrix(0.68453387,0,0,0.68453387,290.93864,-43.728808)" />
  </g>
</svg>
