<?xml version="1.0" encoding="UTF-8" standalone="no"?>
<!-- Created with Inkscape (http://www.inkscape.org/) -->

<svg
   xmlns:dc="http://purl.org/dc/elements/1.1/"
   xmlns:cc="http://creativecommons.org/ns#"
   xmlns:rdf="http://www.w3.org/1999/02/22-rdf-syntax-ns#"
   xmlns:svg="http://www.w3.org/2000/svg"
   xmlns="http://www.w3.org/2000/svg"
   xmlns:sodipodi="http://sodipodi.sourceforge.net/DTD/sodipodi-0.dtd"
   xmlns:inkscape="http://www.inkscape.org/namespaces/inkscape"
   width="200"
   height="130"
   id="svg2"
   version="1.1"
   inkscape:version="0.48.3.1 r9886"
   sodipodi:docname="eye_nonactive.svg">
  <defs
     id="defs4" />
  <sodipodi:namedview
     id="base"
     pagecolor="#ffffff"
     bordercolor="#666666"
     borderopacity="1.0"
     inkscape:pageopacity="0.0"
     inkscape:pageshadow="2"
     inkscape:zoom="2"
     inkscape:cx="-66.83881"
     inkscape:cy="32.858247"
     inkscape:document-units="px"
     inkscape:current-layer="layer1"
     showgrid="false"
     fit-margin-top="0"
     fit-margin-left="0"
     fit-margin-right="0"
     fit-margin-bottom="0"
     inkscape:window-width="1203"
     inkscape:window-height="678"
     inkscape:window-x="143"
     inkscape:window-y="233"
     inkscape:window-maximized="0" />
  <metadata
     id="metadata7">
    <rdf:RDF>
      <cc:Work
         rdf:about="">
        <dc:format>image/svg+xml</dc:format>
        <dc:type
           rdf:resource="http://purl.org/dc/dcmitype/StillImage" />
        <dc:title />
      </cc:Work>
    </rdf:RDF>
  </metadata>
  <g
     inkscape:label="Layer 1"
     inkscape:groupmode="layer"
     id="layer1"
     transform="translate(-431.07401,-600.61476)">
    <path
       sodipodi:type="arc"
       style="fill:#999999;fill-opacity:1;fill-rule:nonzero;stroke:none"
       id="path4142"
       sodipodi:cx="92"
       sodipodi:cy="60"
       sodipodi:rx="94"
       sodipodi:ry="47"
       d="m 186,60 c 0,25.957383 -42.08523,47 -94,47 C 40.085234,107 -2,85.957383 -2,60 -2,34.042617 40.085234,13 92,13 c 51.91477,0 94,21.042617 94,47 z"
       transform="matrix(0.86436171,0,0,1.0585106,451.05273,602.85412)" />
    <path
       style="fill:#000000;stroke:#ffffff;stroke-opacity:1;stroke-width:4;stroke-miterlimit:4;stroke-dasharray:none;stroke-linecap:butt;stroke-linejoin:miter"
       d="m 522.68895,725.25496 c -20.83735,-2.17013 -42.59557,-12.76554 -61.16588,-29.78538 -10.05111,-9.21193 -18.35849,-20.14865 -20.46119,-26.93731 -1.17705,-3.80015 -0.31467,-7.00069 3.57899,-13.28264 10.74277,-17.33216 33.87255,-35.70766 55.24955,-43.89314 19.99329,-7.65564 41.38851,-7.65564 61.3818,0 21.377,8.18548 44.50678,26.56098 55.24955,43.89314 5.22758,8.43407 5.34241,11.82091 0.66222,19.53169 -11.22103,18.48701 -34.8075,37.18792 -57.27301,45.40985 -12.07347,4.41864 -25.66398,6.26754 -37.22203,5.06379 z m 19.23497,-12.72549 c 23.34772,-3.81375 49.61674,-20.97838 64.53256,-42.16673 1.49584,-2.12489 2.71687,-4.24117 2.71339,-4.70285 -0.0126,-1.66508 -6.73864,-10.64926 -12.11686,-16.18472 -19.3063,-19.87078 -44.54857,-32.03644 -66.47169,-32.03644 -21.88173,0 -47.20184,12.20319 -66.47169,32.03644 -5.22082,5.37346 -12.11053,14.51506 -12.11053,16.06881 0,1.55378 6.88971,10.69536 12.11053,16.06882 16.07126,16.54115 35.68429,27.57929 54.96198,30.93243 7.637,1.32836 14.65315,1.32353 22.85231,-0.0158 z"
       id="path2996"
       inkscape:connector-curvature="0"
       sodipodi:nodetypes="sssssssssscscsssssscc" />
    <g
       transform="matrix(1.0059143,0,0,0.70183352,-5.5972446,202.11147)"
       id="g4625">
      <path
         sodipodi:nodetypes="sccccs"
         inkscape:connector-curvature="0"
         id="path4212"
         d="m 532.0593,701.12338 c 58.13977,0 84.0089,-43.35786 84.0089,-43.35786 0,0 -31.75096,33.00737 -84.0089,34.68629 -46.51183,0 -84.20954,-34.68629 -84.20954,-34.68629 l 0.20063,0 c 0,0 25.86913,43.35786 84.00891,43.35786 z"
         style="fill:#000000;fill-opacity:1;fill-rule:nonzero;stroke:none" />
      <path
         sodipodi:nodetypes="cccssccccsccccc"
         inkscape:connector-curvature="0"
         d="m 470.4671,677.08069 c 0,0 -4.22412,3.43025 -6.3568,5.11966 -1.34625,1.08561 -2.85055,1.90061 -4.43599,2.57143 -4.06484,1.81117 1.54676,-0.66291 -10.99349,3.63849 -3.04716,1.0452 12.23135,-4.04947 9.19998,-2.95937 -8.91912,3.20738 -6.81624,2.88842 -10.89374,3.43834 l 9.32058,-4.62531 0,0 c 0.17765,-0.0552 0.70977,-0.22364 0.53295,-0.16579 -3.07302,1.00551 -12.29328,4.01822 -9.22157,3.00876 34.36457,-11.29333 -6.37686,2.16126 1.85538,-0.60829 1.54865,-0.75721 3.23504,-1.24276 4.58785,-2.3769 2.2463,-1.57652 4.38268,-3.32326 6.50019,-5.06795 1.66045,-1.47349 4.90396,-4.50177 4.90396,-4.50177 z"
         id="path4301"
         style="fill:#000000;fill-opacity:1;fill-rule:nonzero;stroke:none" />
      <path
         sodipodi:nodetypes="cccssccccsccccc"
         inkscape:connector-curvature="0"
         d="m 483.27464,685.59961 c 0,0 -3.61363,4.06835 -5.44495,6.08049 -1.15292,1.28907 -2.50558,2.33667 -3.96163,3.25511 -3.71834,2.44483 1.41916,-0.90438 -10.26017,5.36883 -2.83796,1.52433 11.41525,-5.97463 8.60013,-4.40854 -8.28285,4.60786 -6.25926,3.95294 -10.19411,5.15518 l 8.44967,-6.07206 0,0 c 0.16638,-0.0832 0.66425,-0.3355 0.49911,-0.24981 -2.8699,1.48935 -11.48142,5.95381 -8.61344,4.46078 32.08525,-16.70327 -5.94329,3.16429 1.73255,-0.9004 1.40577,-0.99774 2.99141,-1.74968 4.14295,-3.08771 1.96171,-1.91911 3.78741,-3.98842 5.59482,-6.05265 1.40024,-1.72267 4.11119,-5.23573 4.11119,-5.23573 z"
         id="path4301-3"
         style="fill:#000000;fill-opacity:1;fill-rule:nonzero;stroke:none" />
      <path
         sodipodi:nodetypes="cccssccccsccccc"
         inkscape:connector-curvature="0"
         d="m 497.27229,690.37899 c 0,0 -2.79002,4.67179 -4.21322,6.99061 -0.89181,1.48176 -2.02496,2.7636 -3.28381,3.93788 -3.19617,3.0964 1.22523,-1.15357 -9.07662,7.19099 -2.50324,2.02765 10.0982,-8.00191 7.62519,-5.9375 -7.27626,6.07404 -5.41063,5.05263 -9.05163,6.96877 l 7.16662,-7.54364 0,0 c 0.14791,-0.11281 0.58988,-0.45368 0.44366,-0.33865 -2.54116,1.99926 -10.16709,7.99382 -7.62851,5.99132 28.40014,-22.40301 -5.24755,4.21883 1.53385,-1.20821 1.19464,-1.24278 2.6119,-2.2777 3.49321,-3.80729 1.56868,-2.25179 2.97567,-4.62573 4.36565,-6.99126 1.05379,-1.95392 3.06075,-5.91156 3.06075,-5.91156 z"
         id="path4301-3-6"
         style="fill:#000000;fill-opacity:1;fill-rule:nonzero;stroke:none" />
      <path
         sodipodi:nodetypes="cccssccccsccccc"
         inkscape:connector-curvature="0"
         d="m 512.47123,691.9984 c 0,0 -1.43426,5.24906 -2.18313,7.86471 -0.46155,1.66671 -1.20923,3.20558 -2.10686,4.67456 -2.24821,3.84041 0.8708,-1.44001 -6.81445,9.36261 -1.86743,2.62494 7.581,-10.41789 5.75255,-7.76566 -5.37978,7.80358 -3.8566,6.31906 -6.85,9.14184 l 4.87987,-9.18988 0,0 c 0.11222,-0.14836 0.44653,-0.59531 0.33653,-0.44527 -1.91158,2.60776 -7.64954,10.42859 -5.74131,7.8184 21.34802,-29.20144 -3.92322,5.47209 1.15344,-1.57544 0.8174,-1.51774 1.90502,-2.89497 2.34362,-4.60494 0.907,-2.59011 1.62547,-5.2545 2.3298,-7.90624 0.49091,-2.16501 1.36244,-6.51602 1.36244,-6.51602 z"
         id="path4301-3-6-5"
         style="fill:#000000;fill-opacity:1;fill-rule:nonzero;stroke:none" />
      <path
         sodipodi:nodetypes="cccssccccsccccc"
         inkscape:connector-curvature="0"
         d="m 523.61294,693.93097 c 0,0 0.0694,5.44104 0.0712,8.16178 0.0161,1.72936 -0.278,3.41478 -0.73556,5.07438 -1.10154,4.31159 0.43976,-1.62435 -3.96722,10.87917 -1.07084,3.03824 4.41291,-12.10496 3.38707,-9.05125 -3.0183,8.98487 -1.96375,7.13776 -4.06229,10.67678 l 2.15535,-10.17946 0,0 c 0.0669,-0.17356 0.26498,-0.69539 0.20064,-0.52083 -1.11802,3.03391 -4.47584,12.13416 -3.36171,9.09884 12.46401,-33.95748 -2.26143,6.34203 0.67407,-1.8325 0.367,-1.68434 1.03248,-3.30816 0.98235,-5.07277 0.15728,-2.73982 0.11286,-5.49902 0.0583,-8.24216 -0.12538,-2.21643 -0.48796,-6.63903 -0.48796,-6.63903 z"
         id="path4301-3-6-5-0"
         style="fill:#000000;fill-opacity:1;fill-rule:nonzero;stroke:none" />
      <path
         sodipodi:nodetypes="cccssccccsccccc"
         inkscape:connector-curvature="0"
         d="m 532.74108,694.48637 c 0,0 -0.0728,5.70761 -0.0747,8.56164 -0.0169,1.81408 0.29162,3.58207 0.7716,5.32298 1.15551,4.52282 -0.4613,-1.70393 4.16158,11.41215 1.1233,3.18709 -4.6291,-12.698 -3.55301,-9.49468 3.16617,9.42505 2.05996,7.48745 4.26131,11.19985 l -2.26094,-10.67817 0,0 c -0.0702,-0.18206 -0.27797,-0.72945 -0.21047,-0.54634 1.17279,3.18254 4.69511,12.72862 3.5264,9.5446 -13.07464,-35.6211 2.37222,6.65273 -0.70709,-1.92228 -0.38498,-1.76685 -1.08307,-3.47023 -1.03048,-5.32129 -0.16499,-2.87404 -0.11839,-5.76842 -0.0612,-8.64595 0.13153,-2.32502 0.51187,-6.96428 0.51187,-6.96428 z"
         id="path4301-3-6-5-0-6"
         style="fill:#000000;fill-opacity:1;fill-rule:nonzero;stroke:none" />
      <path
         sodipodi:nodetypes="cccssccccsccccc"
         inkscape:connector-curvature="0"
         d="m 544.80242,692.98637 c 0,0 1.92603,5.37331 2.92146,8.04812 0.618,1.70565 1.52481,3.25442 2.58282,4.7179 2.66296,3.83402 -1.02758,-1.43536 7.88671,9.23881 2.16607,2.59374 -8.77404,-10.28027 -6.64653,-7.65483 6.25974,7.72475 4.54625,6.29579 7.90597,9.00505 l -5.8494,-9.21518 0,0 c -0.12939,-0.14606 -0.51532,-0.58636 -0.3881,-0.43837 2.21086,2.57218 8.84659,10.2859 6.63904,7.71091 -24.69664,-28.80773 4.54718,5.40457 -1.33417,-1.55407 -0.97806,-1.52098 -2.22731,-2.87309 -2.8248,-4.62586 -1.15878,-2.63525 -2.12642,-5.36349 -3.07825,-8.07964 -0.68912,-2.22443 -1.95372,-6.70419 -1.95372,-6.70419 z"
         id="path4301-3-6-5-0-6-4"
         style="fill:#000000;fill-opacity:1;fill-rule:nonzero;stroke:none" />
      <path
         sodipodi:nodetypes="cccssccccsccccc"
         inkscape:connector-curvature="0"
         d="m 560.87491,693.78775 c 0,0 3.10044,4.79263 4.67952,7.17002 0.99062,1.51982 2.22667,2.82104 3.5905,4.00474 3.46699,3.12586 -1.32779,-1.16326 9.78546,7.19725 2.70041,2.03155 -10.88688,-8.00896 -8.21679,-5.93776 7.85613,6.09403 5.86197,5.09339 9.75092,6.96526 l -7.79644,-7.63876 0,0 c -0.15928,-0.11271 -0.63544,-0.45342 -0.47782,-0.33834 2.73909,2.00034 10.9588,7.99791 8.22229,5.99407 -30.61443,-22.41798 5.65968,4.22544 -1.65336,-1.20894 -1.29909,-1.25791 -2.82373,-2.28957 -3.80512,-3.85994 -1.72911,-2.30163 -3.29331,-4.73738 -4.83936,-7.16497 -1.17815,-2.00871 -3.43085,-6.08214 -3.43085,-6.08214 z"
         id="path4301-3-6-5-0-6-4-5"
         style="fill:#000000;fill-opacity:1;fill-rule:nonzero;stroke:none" />
      <path
         sodipodi:nodetypes="cccssccccsccccc"
         inkscape:connector-curvature="0"
         d="m 574.598,690.31806 c 0,0 3.99341,4.07857 6.01462,6.09356 1.27364,1.2919 2.74423,2.32067 4.31661,3.20882 4.02042,2.37218 -1.53299,-0.8753 11.02356,5.10263 3.05112,1.4526 -12.26466,-5.67855 -9.23534,-4.18105 8.91306,4.40606 6.75948,3.82293 10.94347,4.88218 l -9.16243,-5.93169 0,0 c -0.17855,-0.0787 -0.71306,-0.31768 -0.53567,-0.23632 3.08281,1.41431 12.33293,5.65338 9.25196,4.23512 -34.46815,-15.86681 6.38826,3.0127 -1.86114,-0.85517 -1.52372,-0.97377 -3.22339,-1.68087 -4.49806,-3.02415 -2.15314,-1.91085 -4.1714,-3.98599 -6.17025,-6.05675 -1.55485,-1.73361 -4.57419,-5.27636 -4.57419,-5.27636 z"
         id="path4301-3-6-5-0-6-4-5-5"
         style="fill:#000000;fill-opacity:1;fill-rule:nonzero;stroke:none" />
      <path
         sodipodi:nodetypes="cccssccccsccccc"
         inkscape:connector-curvature="0"
         d="m 587.26953,685.18696 c 0,0 4.81908,3.05917 7.24693,4.5595 1.53495,0.96701 3.20157,1.63288 4.93519,2.1386 4.45581,1.39167 -1.69234,-0.5022 11.89736,2.4512 3.30217,0.71767 -13.23717,-2.72857 -9.94597,-1.96221 9.68357,2.25486 7.45374,2.17879 11.76906,2.25486 l -10.27466,-3.68326 0,0 c -0.1918,-0.0359 -0.76676,-0.1465 -0.57548,-0.10779 3.32429,0.67316 13.2979,2.68848 9.9745,2.01106 -37.18026,-7.57873 6.90735,1.4747 -2.00722,-0.40769 -1.70579,-0.60019 -3.522,-0.90058 -5.06968,-1.91738 -2.53252,-1.36882 -4.97124,-2.92839 -7.39005,-4.48813 -1.90957,-1.33286 -5.65798,-4.09273 -5.65798,-4.09273 z"
         id="path4301-3-6-5-0-6-4-5-5-7"
         style="fill:#000000;fill-opacity:1;fill-rule:nonzero;stroke:none" />
    </g>
  </g>
</svg>
